<svg viewBox="0 0 101 21" fill="none" xmlns="http://www.w3.org/2000/svg"><g clip-path="url(#a)" fill="#111"><path d="M1.26 18.92a7.92 7.92 0 0 1-1.26-4.68v-6.93c-.1-1.68.3-3.35 1.19-4.76.86-1.08 2.2-1.58 4.18-1.58 1.98 0 3.24.5 4.03 1.42a6.23 6.23 0 0 1 1.19 4.09v1.67h-3.87v-1.92a4.32 4.32 0 0 0-.24-1.67c-.1-.22-.26-.4-.46-.52-.2-.11-.42-.17-.65-.15-.55 0-.94.17-1.1.58-.18.6-.26 1.22-.24 1.84v8.94c-.04.6.07 1.2.32 1.75.15.42.55.58 1.1.58.56 0 .87-.16 1.03-.58.18-.56.26-1.16.24-1.75v-2h3.87v1.66a6.64 6.64 0 0 1-1.19 4.18c-.79 1-2.13 1.5-4.03 1.5-1.9-.08-3.32-.58-4.1-1.67Zm13.99-17.7h4.5l3.33 19.04h-3.64l-.63-4.01h-2.6l-.64 4h-3.72l3.4-19.03Zm3.24 12.52-.95-7.43-.94 7.43h1.9Zm7.35-9.34h-2.68v-3.18h9.4v3.09h-2.69v15.95h-4.03v-15.87Zm13.91-3.18h6.96v2h-4.5v6.27h3.63v1.92h-3.64v7.01h4.5v1.92h-7.03v-19.12h.08Zm9.01 0h1.74l5.14 12.6v-12.6h2.05v19.04h-1.58l-5.21-13.03v13.03h-2.14v-19.04Zm11.3 0h6.96v2h-4.5v6.27h3.63v1.92h-3.64v7.01h4.5v1.92h-6.95v-19.12Zm9.01 0h3.64c1.43-.1 2.85.3 4.03 1.17.87.75 1.26 2.09 1.26 3.84 0 2.42-.7 3.92-2.21 4.42l2.53 9.52h-2.45l-2.37-8.93h-1.98v8.93h-2.53v-18.95h.08Zm3.48 8.18c.81.07 1.63-.16 2.3-.67.47-.41.7-1.25.7-2.5a5.68 5.68 0 0 0-.23-1.84 2.08 2.08 0 0 0-.87-1 3.44 3.44 0 0 0-1.74-.33h-1.1v6.26h.94v.08Zm8.61 9.44a8.82 8.82 0 0 1-1.1-4.85v-6.34a14.1 14.1 0 0 1 .4-3.6c.26-.87.78-1.63 1.5-2.16.88-.55 1.9-.82 2.92-.75 1.66 0 2.84.41 3.55 1.33a6.66 6.66 0 0 1 1.11 4.18v.66h-2.37v-.58c0-.7-.05-1.4-.16-2.09a1.7 1.7 0 0 0-.63-1.08 2.3 2.3 0 0 0-1.5-.42 2.28 2.28 0 0 0-1.58.5 1.87 1.87 0 0 0-.63 1.34c-.1.74-.16 1.5-.16 2.25v7.1c-.06 1.08.1 2.16.47 3.17.32.67.95.92 1.9.92.37.05.75-.02 1.09-.2.34-.18.62-.46.8-.8a8.1 8.1 0 0 0 .56-3.34v-1.34h-2.3v-1.92h4.59v9.44h-1.58l-.24-2.17a3.4 3.4 0 0 1-1.22 1.8 3.1 3.1 0 0 1-2.02.62c-.65.04-1.3-.1-1.9-.38a4 4 0 0 1-1.5-1.3Zm13.52-5.26-3.87-12.28h2.37l2.76 9.19 2.69-9.19h2.37l-3.87 12.28v6.68h-2.37v-6.68h-.08Z"/></g><defs><clipPath id="a"><path fill="#fff" transform="translate(0 .967)" d="M0 0h101v19.54h-101z"/></clipPath></defs></svg>